<svg width="18" height="14" viewBox="0 0 18 14" fill="none" xmlns="http://www.w3.org/2000/svg">
<path d="M15.3529 1.4522C14.2534 0.942535 13.0744 0.567039 11.8417 0.351976C11.8192 0.347826 11.7968 0.358198 11.7852 0.378944C11.6336 0.651402 11.4657 1.00684 11.348 1.28622C10.0222 1.08568 8.7031 1.08568 7.40442 1.28622C7.28678 1.00063 7.11272 0.651402 6.96041 0.378944C6.94885 0.358891 6.92642 0.348518 6.90397 0.351976C5.67194 0.566352 4.49293 0.941848 3.3928 1.4522C3.38327 1.45635 3.37511 1.46327 3.36969 1.47225C1.13338 4.8476 0.520755 8.13998 0.821286 11.3915C0.822646 11.4074 0.831485 11.4227 0.843724 11.4323C2.31918 12.527 3.74841 13.1916 5.15111 13.6321C5.17356 13.639 5.19734 13.6307 5.21163 13.612C5.54343 13.1542 5.83921 12.6716 6.09281 12.164C6.10778 12.1342 6.09349 12.099 6.0629 12.0872C5.59375 11.9074 5.14703 11.6882 4.71731 11.4393C4.68332 11.4192 4.68059 11.3701 4.71186 11.3466C4.80229 11.2781 4.89275 11.2069 4.97909 11.135C4.99471 11.1218 5.01648 11.1191 5.03485 11.1274C7.85792 12.4295 10.9142 12.4295 13.704 11.1274C13.7224 11.1184 13.7441 11.1211 13.7604 11.1343C13.8468 11.2062 13.9372 11.2781 14.0283 11.3466C14.0596 11.3701 14.0576 11.4192 14.0236 11.4393C13.5939 11.693 13.1471 11.9074 12.6773 12.0865C12.6467 12.0983 12.6331 12.1342 12.6481 12.164C12.9071 12.6708 13.2029 13.1535 13.5286 13.6113C13.5422 13.6307 13.5667 13.639 13.5891 13.6321C14.9986 13.1916 16.4278 12.527 17.9033 11.4323C17.9162 11.4227 17.9244 11.4081 17.9257 11.3922C18.2854 7.63306 17.3233 4.36768 15.3753 1.47294C15.3705 1.46327 15.3624 1.45635 15.3529 1.4522ZM6.51439 9.41168C5.66445 9.41168 4.96413 8.62335 4.96413 7.6552C4.96413 6.68706 5.65087 5.89873 6.51439 5.89873C7.38469 5.89873 8.07824 6.69398 8.06463 7.6552C8.06463 8.62335 7.37789 9.41168 6.51439 9.41168ZM12.2462 9.41168C11.3963 9.41168 10.696 8.62335 10.696 7.6552C10.696 6.68706 11.3827 5.89873 12.2462 5.89873C13.1165 5.89873 13.8101 6.69398 13.7965 7.6552C13.7965 8.62335 13.1165 9.41168 12.2462 9.41168Z" fill="#A19F9F"/>
</svg>
