<svg width="1em" height="1em" viewBox="0 0 24 24" fill="none" xmlns="http://www.w3.org/2000/svg" class="icon" style="cursor: pointer;"><path d="M4.775 2h14.19v20.177h-2.083v-9.242h-.02a5.012 5.012 0 0 0-9.984 0h-.02v9.242H4.775V2Z" fill="#fff"></path><path d="m1 4.864.846 2.864h.716v11.586a.65.65 0 0 0-.65.65v.782h-.13a.65.65 0 0 0-.652.65v.781h7.29v-.78a.65.65 0 0 0-.65-.651h-.13v-.781a.65.65 0 0 0-.652-.651h-.78V4.864H1ZM17.012 19.314a.65.65 0 0 0-.651.65v.782h-.13a.65.65 0 0 0-.651.65v.781h7.29v-.78a.65.65 0 0 0-.651-.651h-.13v-.781a.65.65 0 0 0-.651-.651V7.728h.716L23 4.864h-5.207v14.45h-.781Z" fill="#fff"></path></svg>