<svg width="67" height="119" viewBox="0 0 67 119" fill="none" xmlns="http://www.w3.org/2000/svg">
<path d="M32.8053 14.3871L14.563 7.14821C13.0194 6.46472 11.6397 7.49182 11.4305 8.96909L8.93997 28.2144C8.88462 28.5922 9.15334 28.9531 9.53115 29.0085L11.3862 29.2731C13.759 29.6135 15.9509 27.9693 16.2913 25.5965L17.0716 18.2212C17.2542 16.9258 18.5969 16.1506 19.8133 16.6289L26.9012 19.4681C29.1161 20.35 31.634 19.2609 32.5099 17.038L33.2001 15.3025C33.3453 14.945 33.1628 14.5324 32.8053 14.3871Z" fill="#FF1256"/>
<path d="M30.7116 84.9076C32.0816 78.9776 30.4616 72.7476 26.3616 68.2376L15.8117 56.2776C9.94168 49.6176 11.3917 39.2976 18.8717 34.5176L36.1316 23.4876C37.2416 22.7776 38.7016 22.9076 39.6716 23.7976C45.9816 29.6176 67.9516 50.5976 66.9716 72.2676C66.9716 72.2676 67.0016 105.918 33.8616 118.508C28.9916 120.358 24.0616 115.908 25.3416 110.858C29.9216 92.7176 30.7216 84.8976 30.7216 84.8976L30.7116 84.9076ZM35.0316 33.0976C32.3916 34.7676 27.2816 38.0076 22.9216 40.7776C20.0017 42.6276 19.4117 46.6376 21.6717 49.2576L32.7016 62.0076C44.5 73 57 93 39.4116 87.7176L56 89C56 91.6724 40.76 95.86 43.5 93.5C38.5 67.5 45.5 85.5 28.5 48.5C65 70 65.8451 62.0076 35.0316 33.1076V33.0976Z" fill="#FF1256"/>
</svg>
